<svg width="66" height="70" fill="none" xmlns="http://www.w3.org/2000/svg">
  <path d="M65.32 48.34l-18.47-18.6 2.05-10.1c.53.2 1.09.31 1.66.32h.01a4.72 4.72 0 10-4.4-3.14l-10.84 1.32L17.63.35A1.17 1.17 0 0016.8 0c-.3 0-.6.12-.81.34l-3.31 3.29c-.46.46-.46 1.2 0 1.65l1.78 1.8a32.69 32.69 0 005.51 38.64c.1.1.2.16.32.22-.07.4-.11.8-.11 1.2v13.53h-14A5.84 5.84 0 00.34 66.5v2.33c0 .65.52 1.17 1.17 1.17h53.67c.64 0 1.16-.52 1.16-1.17V66.5a5.84 5.84 0 00-5.83-5.83h-14v-6a32.48 32.48 0 0022.07-3.2l1.79 1.8c.21.22.51.35.82.35.3 0 .6-.13.82-.34l3.3-3.3c.46-.45.46-1.19 0-1.64zm-16.4-34.7a2.33 2.33 0 111.65 3.98 2.33 2.33 0 01-1.64-3.99zm-2.74 7.66l-1.31 6.44-2.57-2.58 3.88-3.86zm-1.33-1.97l-4.2 4.17-3.25-3.26 7.45-.91zM50.51 63a3.5 3.5 0 013.5 3.5v1.17H2.68V66.5a3.5 3.5 0 013.5-3.5H50.5zm-16.33-4.67v2.34H22.5v-2.34h11.67zM22.5 56v-8.87c0-2.83 2.62-5.13 5.83-5.13 3.22 0 5.84 2.3 5.84 5.13V56H22.5zm14-3.71v-5.16c0-4.11-3.66-7.46-8.17-7.46a8.31 8.31 0 00-7.18 3.9 30.34 30.34 0 01-4.98-34.75l40.7 40.93a30.23 30.23 0 01-20.37 2.54zm24.7-1.5l-1.65-1.65L16.79 6.12l-1.65-1.66 1.65-1.64 17.36 17.45.02.02 28.69 28.86-1.66 1.64z" fill="#212121"/>
  <path d="M28.35 44.33a3.5 3.5 0 10-.02 7h.01a3.5 3.5 0 10.01-7zm.82 4.33a1.17 1.17 0 11-.83-2 1.17 1.17 0 01.82 2z" fill="#2196F3"/>
</svg>
