<svg width="70" height="70" fill="none" xmlns="http://www.w3.org/2000/svg">
  <g clip-path="url(#clip0)">
    <path d="M32.65 32.74h2.33v10.49h-2.33v-10.5zM41.98 37.4h2.33v5.83h-2.33V37.4zM23.32 40.9h2.33v2.33h-2.33V40.9zM16.32 39.73h2.34v3.5h-2.34v-3.5z" fill="#2196F3"/>
    <path d="M3.5 61.89h55.97a3.5 3.5 0 003.5-3.5v-4.67a3.5 3.5 0 00-3.5-3.5H58.3V21.16l6.63-6.28a3.52 3.52 0 10-1.64-1.67l-4.99 4.73v-2.69a3.5 3.5 0 00-3.5-3.5H8.16a3.5 3.5 0 00-3.5 3.5v34.99H3.5a3.5 3.5 0 00-3.5 3.5v4.66a3.5 3.5 0 003.5 3.5zm62.97-51.31a1.17 1.17 0 110 2.33 1.17 1.17 0 010-2.33zM7 15.24c0-.64.52-1.16 1.16-1.16H54.8c.65 0 1.17.52 1.17 1.16v4.9l-2.33 2.22v-4.78c0-.65-.52-1.17-1.17-1.17H10.5c-.64 0-1.16.52-1.16 1.17v29.15c0 .64.52 1.16 1.16 1.16h41.98c.65 0 1.17-.52 1.17-1.16V25.57l2.33-2.21v26.87H7V15.24zM17.5 30.4a3.5 3.5 0 102.41 6.01l4.06 2.04c.47.23 1.04.12 1.39-.27l8.61-9.7 8.47 6.35c.46.34 1.1.3 1.5-.08l7.37-6.98v17.8H11.66V18.73h39.65v5.82l-8.25 7.81-8.54-6.4a1.17 1.17 0 00-1.58.16l-8.73 9.83-3.27-1.64c.03-.14.04-.28.05-.42a3.5 3.5 0 00-3.5-3.5zm1.16 3.5a1.17 1.17 0 11-2.34 0 1.17 1.17 0 012.34 0zm7 18.66H37.3v1.16c0 .65-.52 1.17-1.16 1.17h-9.33c-.64 0-1.17-.52-1.17-1.17v-1.16zM2.32 53.72c0-.64.52-1.16 1.17-1.16h19.82v1.16a3.5 3.5 0 003.5 3.5h9.33a3.5 3.5 0 003.5-3.5v-1.16h19.82c.64 0 1.16.52 1.16 1.16v4.67c0 .64-.52 1.16-1.16 1.16H3.5c-.65 0-1.17-.52-1.17-1.16v-4.67z" fill="#212121"/>
  </g>
  <defs>
    <clipPath id="clip0">
      <path fill="#fff" d="M0 0h70v70H0z"/>
    </clipPath>
  </defs>
</svg>
