<svg width="45" height="50" fill="none" xmlns="http://www.w3.org/2000/svg">
  <path d="M6 0l7.3 6.92h20.4v19.3l7.3 6.91V0H6z" fill="#AFB1B8"/>
  <path d="M0 6.63V38.8h34v-12.8L13.52 6.64H0zM27.52 34.1H5.38V12.46h1.57v20.18h20.57v1.47zM9.8 44.78l.8-1.68h.7l-1.2 2.25v1.3h-.62v-1.3l-1.2-2.25h.7l.81 1.68zm3.5 1.05h-1.38l-.28.82h-.65l1.35-3.55h.55l1.35 3.55h-.65l-.29-.82zm-1.2-.5h1.03l-.52-1.48-.51 1.48zm3.64.36a.8.8 0 01.13-.45c.09-.14.27-.3.53-.49a2.27 2.27 0 01-.3-.44.88.88 0 01-.07-.36c0-.27.08-.5.25-.66.17-.16.4-.24.69-.24a.9.9 0 01.63.23c.17.15.25.34.25.56 0 .15-.04.29-.11.41-.08.13-.2.25-.37.38l-.24.17.68.81c.1-.2.15-.41.15-.65h.52c0 .44-.1.8-.31 1.08l.52.61H18l-.2-.23c-.25.19-.55.28-.9.28-.36 0-.64-.09-.85-.28a.93.93 0 01-.31-.73zm1.17.54a.9.9 0 00.56-.2l-.77-.92-.08.06c-.2.15-.3.31-.3.5 0 .17.06.3.17.4.1.1.25.16.42.16zm-.32-2.3c0 .15.08.32.25.52l.27-.18.07-.06c.1-.1.16-.2.16-.35 0-.09-.04-.17-.11-.23a.37.37 0 00-.27-.1c-.11 0-.2.04-.27.11a.43.43 0 00-.1.3zm6.45 1.57c-.03.38-.17.67-.42.89-.24.2-.57.31-.97.31a1.4 1.4 0 01-.75-.2 1.33 1.33 0 01-.5-.57 2.06 2.06 0 01-.18-.86v-.34c0-.33.06-.63.18-.88a1.35 1.35 0 011.28-.8c.39 0 .7.1.95.32.23.21.37.51.41.9h-.61c-.03-.25-.1-.44-.23-.55-.12-.11-.3-.17-.52-.17-.27 0-.48.1-.62.3-.15.2-.22.48-.22.86v.31c0 .39.07.68.2.88.14.2.34.3.6.3.25 0 .43-.05.56-.16.12-.1.2-.29.23-.54h.61zm3.4-.53c0 .35-.07.65-.19.92-.12.26-.29.46-.51.6-.23.14-.48.21-.78.21-.28 0-.54-.07-.77-.2a1.4 1.4 0 01-.52-.61 2.12 2.12 0 01-.19-.9v-.2c0-.35.07-.65.19-.92.12-.26.3-.47.52-.6.22-.15.48-.22.77-.22a1.36 1.36 0 011.29.81c.12.26.18.56.18.91v.2zm-.62-.19c0-.39-.08-.7-.23-.9a.73.73 0 00-.63-.32c-.27 0-.48.1-.63.32-.15.2-.22.5-.23.88v.2c0 .4.08.7.23.91.15.22.36.32.63.32.28 0 .49-.1.63-.3.15-.22.23-.52.23-.92v-.19z" fill="#AFB1B8"/>
</svg>
