<svg width="89" height="46" fill="none" xmlns="http://www.w3.org/2000/svg">
  <path d="M44.74 21.35a3.26 3.26 0 01-.57-2.05V16.3c0-.91.19-1.6.57-2.08.38-.48 1.02-.71 1.95-.71.86 0 1.48.2 1.84.6.4.52.59 1.15.54 1.79v.7h-1.54v-.7c0-.24-.01-.47-.05-.7a.69.69 0 00-.22-.42.84.84 0 00-.56-.16.89.89 0 00-.6.17.81.81 0 00-.25.46c-.04.24-.06.49-.06.73v3.62a2 2 0 00.2 1.02c.08.1.18.2.3.25.13.05.27.07.4.05.2.02.4-.04.56-.16.12-.12.2-.27.23-.44.03-.24.05-.48.05-.72v-.74h1.54v.67c.05.67-.14 1.32-.53 1.88-.36.44-.96.66-1.85.66-.9 0-1.57-.24-1.95-.73zM51.19 21.38c-.4-.46-.6-1.14-.6-2.03V16.2c0-.89.2-1.56.6-2.01.39-.46 1.04-.68 1.96-.68.9 0 1.56.23 1.95.68.39.45.59 1.12.59 2.01v3.14c0 .88-.2 1.56-.6 2.03-.4.47-1.04.7-1.94.7-.9 0-1.57-.24-1.96-.7zm2.68-.75c.14-.29.2-.6.18-.93v-3.84c.02-.31-.04-.62-.18-.9a.74.74 0 00-.31-.26.78.78 0 00-.41-.05.8.8 0 00-.41.05.75.75 0 00-.32.25c-.14.29-.2.6-.19.91v3.86c-.02.32.05.64.19.93a.96.96 0 00.72.31 1 1 0 00.73-.31v-.02zM57.55 13.61h1.67l1.25 5.79 1.28-5.79h1.62l.17 8.36h-1.2l-.13-5.81-1.24 5.8h-.96l-1.28-5.82-.12 5.83H57.4l.15-8.36zM65.4 13.61H68c1.5 0 2.25.8 2.25 2.37 0 1.52-.8 2.27-2.37 2.27H67v3.72h-1.6V13.6zm2.22 3.57a1.16 1.16 0 00.88-.26c.19-.28.27-.62.24-.95 0-.25-.02-.5-.08-.75a.67.67 0 00-.32-.4c-.22-.1-.47-.15-.72-.14H67v2.5h.62zM72.56 13.61h1.72l1.76 8.36h-1.5l-.34-1.93h-1.54l-.35 1.93h-1.52l1.77-8.36zm1.47 5.46l-.6-3.5-.6 3.5h1.2zM77.47 13.61h1.12l2.15 4.77V13.6h1.33v8.36H81l-2.16-4.98v4.98h-1.37V13.6zM85.18 18.78l-1.78-5.16h1.5l1.1 3.32L87 13.62h1.47l-1.76 5.16v3.19h-1.54v-3.19zM47.21 25.62v.44h-1.3v3.4h-.55v-3.4h-1.31v-.44h3.16zM51.31 29.45h-.42a.18.18 0 01-.12-.04.2.2 0 01-.07-.08l-.38-.91h-1.81l-.38.9a.26.26 0 01-.06.11.18.18 0 01-.12.04h-.42l1.6-3.84h.56l1.62 3.82zm-2.65-1.42h1.51l-.64-1.56a2.96 2.96 0 01-.12-.36l-.06.2-.06.16-.63 1.56zM54.08 29.07h.3a1.65 1.65 0 00.48-.11l.22-.1V28h-.64a.12.12 0 01-.09-.03.09.09 0 01-.03-.07v-.3h1.24v1.48a2.35 2.35 0 01-1.07.39c-.16.02-.31.02-.47.02-.28 0-.55-.04-.8-.14-.25-.09-.47-.23-.65-.4a1.85 1.85 0 01-.56-1.4c0-.27.05-.55.14-.8a1.76 1.76 0 011.06-1c.27-.1.56-.15.86-.15a2.94 2.94 0 01.82.13 1.76 1.76 0 01.6.35l-.15.24a.14.14 0 01-.05.05.15.15 0 01-.08.02.2.2 0 01-.1-.03l-.15-.09a1.87 1.87 0 00-1.54-.12c-.18.07-.34.18-.47.3-.13.15-.23.3-.3.49-.14.41-.14.86 0 1.27a1.37 1.37 0 001.43.86zM59.19 29.01h1.75v.44h-2.29v-3.83h.55l-.01 3.4zM62.76 29.45h-.55v-3.83h.55v3.83zM64.8 25.64c.03.01.05.04.08.07l2.34 2.89v-.14-2.86h.48v3.85h-.28c-.04 0-.08 0-.12-.02a.31.31 0 01-.08-.07l-2.34-2.89v2.98h-.46v-3.83h.28c.04 0 .07 0 .1.02zM71.73 25.62v.42H69.8v1.27h1.57v.4H69.8v1.31h1.94v.42h-2.5v-3.82h2.5zM14.3 1.95L38.64 8.5v22.92L14.3 24.88V1.95zM12.74 0v26l27.46 7.37V7.38L12.74 0z" fill="#AFB1B8"/>
  <path d="M27.46 45.44L0 38.05V12.06l27.46 7.39v25.99z" fill="#AFB1B8"/>
  <path d="M13.2 1.66l24.02 6.46L27 17.79 2.98 11.33 13.2 1.66zM12.74 0L0 12.06l27.46 7.39L40.2 7.38 12.74 0zM29 43.98l11.2-10.6L29 30.36v13.62z" fill="#AFB1B8"/>
</svg>
