<svg width="40" height="52" fill="none" xmlns="http://www.w3.org/2000/svg">
  <path d="M16.98 2.93h.13c.26 0 .53.03.8.05 1.2.09 2.38.27 3.54.54V.65A21.09 21.09 0 0016.32 0h-.43c-2.47 0-4.94.33-7.33.95A29.73 29.73 0 00.77 4.1v28.4a32.36 32.36 0 0113.65-3.85h.08c.35-.02.7-.03 1.07-.03v-2.9a34.33 34.33 0 00-10.91 1.9l-1.01.34V5.83l.43-.2A28.28 28.28 0 0115.89 2.9h.46l.63.02z" fill="#AFB1B8"/>
  <path d="M24.11 5.93a25.91 25.91 0 01-5.56-.6v28.06c1.82.45 3.7.67 5.57.66 2.47-.01 4.94-.33 7.33-.94a29.81 29.81 0 007.8-3.17V2.05a31.78 31.78 0 01-7.43 2.9c-2.52.64-5.1.97-7.7.98zm11.23.49l1-.34v22.15l-.43.2a27.76 27.76 0 01-13.76 2.64l-.7-.06V8.23l.81.05a34.26 34.26 0 0013.07-1.86zM2.74 42.21a1.5 1.5 0 00-1.13-.45c-.22 0-.44.04-.65.12a1.5 1.5 0 00-.95 1.47v3.8c0 .26.04.53.15.77.1.2.22.37.38.51.15.13.33.22.52.27.19.05.38.08.57.08a1.6 1.6 0 001.57-1.6v-.42h-1v.33c.01.12 0 .24-.05.34a.6.6 0 01-.14.22.7.7 0 01-.41.14.5.5 0 01-.47-.2.9.9 0 01-.14-.51v-3.54c0-.2.04-.39.13-.56a.5.5 0 01.48-.23.53.53 0 01.44.21.8.8 0 01.17.5v.34h.98v-.39a1.79 1.79 0 00-.45-1.2zM8.63 42.17a1.77 1.77 0 00-1.72-.31c-.2.07-.37.17-.52.3-.17.16-.3.34-.39.54-.1.23-.15.48-.14.74v3.63c-.01.26.04.51.14.75.09.2.22.37.39.5.15.15.32.26.52.33a1.74 1.74 0 001.18 0 1.55 1.55 0 001.05-1.57v-3.64a1.64 1.64 0 00-.52-1.27zm-.46 4.9a.65.65 0 01-.2.53.73.73 0 01-.93 0 .65.65 0 01-.2-.53v-3.63a.65.65 0 01.2-.53.73.73 0 01.93 0 .65.65 0 01.2.53v3.63zM16.37 48.7V41.8h-.96l-1.25 3.65h-.02l-1.26-3.65h-.94v6.89h.98v-4.2h.02l.96 2.97h.5l.97-2.96h.01v4.19h.99zM21.96 42.3c-.15-.18-.34-.3-.56-.38a2.18 2.18 0 00-.71-.11h-1.46v6.89h.98V46h.5c.31.02.61-.04.89-.18a1.65 1.65 0 00.76-1.13 4.9 4.9 0 00-.04-1.76 1.47 1.47 0 00-.36-.64zm-.5 2.1c-.01.12-.04.24-.1.35-.06.1-.14.2-.25.24a1 1 0 01-.46.1h-.45v-2.35h.5c.16 0 .3.02.45.09.1.05.18.14.23.25a1 1 0 01.08.38V44.4zM26.6 41.81h-.8L24.3 48.7h.98l.29-1.48h1.33l.3 1.48h.97l-1.55-6.89zm-.9 4.47l.49-2.5h.01l.48 2.5h-.98zM32.95 45.96h-.02l-1.48-4.15h-.94v6.89h.98v-4.14h.02L33 48.7h.92V41.8h-.98v4.15zM38.95 41.81l-.8 2.74h-.01l-.8-2.74h-1.03l1.35 3.98v2.9h.98v-2.9l1.35-3.98h-1.04zM0 50.64h.47v1.33H.8v-1.33h.47v-.27H0v.27zM3.98 50.37l-.62 1.6h.34l.13-.36h.64l.13.36h.35l-.63-1.6h-.34zm-.05.97l.21-.6.22.6h-.43zM7.9 51.38h.38v.2a.61.61 0 01-.38.14.4.4 0 01-.34-.15.67.67 0 01-.12-.42c0-.35.15-.53.46-.53a.34.34 0 01.36.25l.32-.06c-.07-.31-.3-.47-.68-.47a.8.8 0 00-.56.2.78.78 0 00-.23.62c0 .22.06.44.2.6a.78.78 0 00.61.24c.25 0 .5-.09.68-.26v-.63h-.7v.27zM11.92 50.37h-.32v1.6h1.12v-.27h-.8v-1.33zM15.32 50.37h-.33v1.6h.33v-1.6zM18.64 51.44l-.66-1.07h-.31v1.6h.3v-1.04l.64 1.04h.32v-1.6h-.3v1.07zM21.64 51.27h.8V51h-.8v-.36h.85v-.27h-1.18v1.6h1.22v-.27h-.9v-.43zM28.91 51h-.63v-.63h-.32v1.6h.32v-.7h.63v.7h.32v-1.6h-.32V51zM31.93 51.27h.8V51h-.8v-.36h.86v-.27h-1.18v1.6h1.21v-.27h-.89v-.43zM36.02 51.27c.28-.05.42-.2.42-.45a.38.38 0 00-.15-.35.9.9 0 00-.47-.1h-.68v1.6h.32v-.67h.06c.07 0 .14.01.2.04.05.03.1.07.12.12l.35.5h.38l-.2-.3c-.08-.16-.2-.3-.35-.4zm-.32-.22h-.24v-.4h.25c.11-.01.23 0 .33.03a.2.2 0 01-.01.33.91.91 0 01-.33.04zM39.1 51.27h.8V51h-.8v-.36h.87v-.27h-1.18v1.6H40v-.27h-.9v-.43z" fill="#AFB1B8"/>
</svg>
