<svg width="41" height="43" fill="none" xmlns="http://www.w3.org/2000/svg">
  <path d="M6.35 41.8a.12.12 0 01.08.03l.2.21c-.16.18-.36.32-.58.41-.26.1-.54.16-.82.15-.26 0-.53-.04-.77-.14a1.67 1.67 0 01-.96-.98 2.16 2.16 0 01.01-1.54 1.79 1.79 0 011.02-.99 2.23 2.23 0 011.53 0c.2.08.4.2.56.34l-.18.23a.17.17 0 01-.04.04.1.1 0 01-.07.02.16.16 0 01-.07-.03l-.1-.06-.13-.08a1.4 1.4 0 00-.7-.16c-.2 0-.4.03-.58.1-.17.07-.32.17-.45.3-.13.13-.22.28-.29.45-.07.2-.1.4-.1.61 0 .21.03.42.1.62.07.17.16.32.29.46.12.12.26.22.42.28.17.07.35.1.53.1.11 0 .21 0 .32-.02a1.17 1.17 0 00.68-.32.15.15 0 01.1-.04zM12.29 40.71c0 .26-.05.52-.14.76-.09.22-.22.43-.39.6-.17.16-.38.3-.6.38a2.3 2.3 0 01-1.57 0 1.74 1.74 0 01-1-.99 2.17 2.17 0 010-1.52c.1-.22.22-.43.4-.6.17-.16.37-.3.6-.38.5-.18 1.06-.18 1.56 0a1.76 1.76 0 011 .98c.1.25.14.5.14.77zm-.54 0c0-.2-.03-.41-.1-.61a1.2 1.2 0 00-.71-.75 1.66 1.66 0 00-1.14 0 1.2 1.2 0 00-.71.75c-.13.4-.13.82 0 1.22a1.2 1.2 0 00.71.74c.37.14.77.14 1.14 0a1.2 1.2 0 00.7-.74c.08-.2.11-.4.1-.6zM16.34 41.35l.05.14.06-.14.07-.13 1.32-2.28c.02-.04.04-.06.07-.07a.32.32 0 01.1-.01h.4v3.7h-.46v-2.72-.12-.12l-1.33 2.3a.2.2 0 01-.07.09.22.22 0 01-.12.03h-.07a.21.21 0 01-.11-.03.2.2 0 01-.08-.09l-1.36-2.32v2.97h-.45v-3.7h.4l.1.02c.03.02.06.04.07.07l1.34 2.28a.8.8 0 01.07.13zM21.29 41.17v1.39h-.52v-3.7h1.15c.22 0 .43.02.64.08.17.04.32.12.45.23.12.1.2.22.26.36.06.15.1.31.09.48 0 .16-.03.32-.1.47-.06.14-.15.27-.28.37-.13.1-.28.2-.45.24a2 2 0 01-.62.09l-.62-.01zm0-.4h.62c.13 0 .27-.02.4-.05.1-.04.2-.1.29-.16a.65.65 0 00.17-.25c.04-.1.06-.2.06-.31a.68.68 0 00-.23-.55c-.2-.15-.44-.22-.69-.2h-.62v1.52zM28.2 42.56h-.4a.18.18 0 01-.12-.03.23.23 0 01-.07-.09l-.35-.9h-1.75l-.36.9a.2.2 0 01-.07.08.18.18 0 01-.11.04h-.41l1.54-3.7h.54l1.56 3.7zm-2.55-1.37h1.46l-.62-1.51a2.6 2.6 0 01-.11-.35l-.06.2-.06.15-.6 1.5zM30.42 38.88c.03.01.06.03.08.06l2.25 2.8v-.14-2.74h.46v3.7h-.26c-.03 0-.07 0-.1-.02a.28.28 0 01-.08-.07l-2.25-2.79v2.88h-.46v-3.7h.27c.03 0 .06 0 .1.02zM37 41.09v1.47h-.51v-1.47l-1.42-2.23h.46c.04 0 .08 0 .1.03l.08.08.89 1.44a2.3 2.3 0 01.15.33l.07-.16.09-.17.87-1.45a.37.37 0 01.07-.07.16.16 0 01.11-.04h.47L37 41.09zM16.09 32.64l.68.07a19.1 19.1 0 008.44-6.96 17.78 17.78 0 003-10.24l-3.83-3.65c.78 3.86.41 7.84-1.05 11.52a21.27 21.27 0 01-7.24 9.26z" fill="#AFB1B8"/>
  <path d="M14.72 32.47l.1.02a20.6 20.6 0 007.65-9.54 19.54 19.54 0 00.7-12l-5.44-5.18a24.08 24.08 0 01-3.01 26.7zM33.2 19.79a18.8 18.8 0 01-6.41 10.23c-.95.78-1.97 1.48-3.05 2.08a18.19 18.19 0 007.08-3.81 17.09 17.09 0 004.59-6.4l-2.21-2.1z" fill="#AFB1B8"/>
  <path d="M32.33 19.2l-3.15-3a18.47 18.47 0 01-2.95 9.67 19.72 19.72 0 01-7.7 6.9h.02c.7 0 1.4-.03 2.1-.11a19.34 19.34 0 007.62-5.33 18.1 18.1 0 004.06-8.13zM15.18 3.58L11.42 0a17.75 17.75 0 00-8.28 6.23A16.46 16.46 0 000 15.83a16.51 16.51 0 003.8 10.43 17.96 17.96 0 009.73 6.02c3.44-4 5.46-8.93 5.75-14.1a23.44 23.44 0 00-4.1-14.6zM41 18.65a16.6 16.6 0 00-5.23-11.97 18.3 18.3 0 00-18.94-3.85l22.98 21.89c.79-1.94 1.2-4 1.19-6.07z" fill="#AFB1B8"/>
</svg>
