<svg width="70" height="70" fill="none" xmlns="http://www.w3.org/2000/svg">
  <path d="M69.94 9.9c-.13-.42-.5-.73-.94-.8l-4.18-.6-1.87-3.8c-.39-.79-1.7-.79-2.09 0L59 8.5l-4.18.6a1.17 1.17 0 00-.65 2l3.03 2.94-.71 4.16a1.17 1.17 0 001.69 1.23l3.74-1.96 3.73 1.96a1.17 1.17 0 001.7-1.23l-.72-4.16 3.03-2.95c.32-.3.43-.77.3-1.2zm-5.38 2.9c-.28.27-.4.65-.34 1.03l.42 2.44-2.19-1.15a1.16 1.16 0 00-1.09 0l-2.19 1.15.42-2.44c.07-.38-.06-.76-.33-1.03l-1.78-1.73 2.45-.35c.38-.06.71-.3.88-.64l1.1-2.22L63 10.08c.17.34.5.58.88.64l2.45.35-1.77 1.73zM57.17 44.9h-2.34v2.33h2.34v-2.34zM57.17 49.56h-2.34v2.33h2.34v-2.33zM59.5 47.23h-2.33v2.33h2.33v-2.33zM54.83 47.23H52.5v2.33h2.33v-2.33zM49 57.73h-2.33v2.33H49v-2.33zM49 62.4h-2.33v2.33H49v-2.34zM51.33 60.06H49v2.33h2.33v-2.33zM46.67 60.06h-2.34v2.33h2.34v-2.33zM35 53.06h-2.33v2.33H35v-2.33zM35 57.73h-2.33v2.33H35v-2.33zM37.33 55.4H35v2.33h2.33v-2.34zM32.67 55.4h-2.34v2.33h2.34v-2.34zM12.83 13.4H10.5v2.33h2.33v-2.34zM12.83 18.06H10.5v2.33h2.33v-2.33zM15.17 15.73h-2.34v2.33h2.34v-2.33zM10.5 15.73H8.17v2.33h2.33v-2.33z" fill="#2196F3"/>
  <path d="M54.06 30.97a3.88 3.88 0 00-2.6-1.54 3.89 3.89 0 00-2.93.77l-2.73 2.1-4.16 3.1-2.97-1.18c5.3-2.38 9-7.67 9-13.83 0-8.36-6.83-15.16-15.23-15.16s-15.22 6.8-15.22 15.16c0 3.04.9 5.85 2.45 8.23l-6.05-.06h-.01l-.05.01c-.12 0-.23.03-.34.07l-.08.03-.05.01-7.07 3.5-4.14 1.99a3.9 3.9 0 003.88 6.76l3.03-1.61 4.95-2.56 2.97-.02L4.81 48.6l-2.93 2.92a3.6 3.6 0 000 5.15 3.65 3.65 0 005.16 0L9.9 53.8l3.81-2.84 1.97 1.96-3.85 3.84-2.93 2.91a3.6 3.6 0 000 5.16 3.65 3.65 0 005.16 0L17 61.9l4.68-4.66 2.22-2.2h-.01l.04-.04 11.3-12.38 7.6 1.09a1.1 1.1 0 00.57-.08l.11-.05c.04-.02.09-.03.13-.06l7.03-4.66.06-.07.09-.05 2.78-2.61a3.9 3.9 0 00.46-5.17zm-49.4 7.9a1.56 1.56 0 01-1.69-2.64l2.88-1.38.69 2.02.29.85-2.17 1.15zm7.65-4l-3.39 1.75L8.36 35l-.4-1.17 4.44-2.2-.09 3.25zM45.34 20.4c0 2.01-.48 3.9-1.31 5.6l-9.15-4.15a4.07 4.07 0 00-1.72-3.04l3.2-10.63c5.2 1.65 8.98 6.5 8.98 12.22zm-25.79 0A12.88 12.88 0 0134.08 7.67l-3.14 10.4-.12-.01a4.1 4.1 0 00-4.1 4.08 4.1 4.1 0 007.64 2.02L42.8 28a12.89 12.89 0 01-23.26-7.6zm13.03 1.75a1.76 1.76 0 01-3.53 0c0-.96.8-1.75 1.77-1.75s1.76.79 1.76 1.75zM5.4 55.01c-.51.51-1.35.5-1.87 0a1.3 1.3 0 010-1.85l2.1-2.1 1.87 1.86L5.39 55zm7.03 8.16c-.51.52-1.35.52-1.87 0a1.3 1.3 0 010-1.84l2.1-2.1.89.88.98.98-2.1 2.08zm7.62-7.58l-3.87 3.85-.88-.88-.98-.98 3.86-3.83c.09-.1.14-.2.2-.3l.05-.1c.04-.08.05-.18.06-.27 0-.06.03-.1.03-.16 0-.08-.03-.16-.04-.23l-.04-.21c-.05-.11-.12-.2-.2-.3l-.06-.09-3.52-3.5c-.03-.04-.08-.05-.12-.08-.07-.05-.13-.1-.2-.13a1.09 1.09 0 00-.2-.07 1.12 1.12 0 00-.22-.04h-.21l-.23.05c-.07.02-.14.06-.2.1-.05.02-.1.03-.14.06l-3.88 2.9-1.97-1.97 5.25-5.22 9.54 9.39-2.03 2zm14.91-15.35h-.1a1.15 1.15 0 00-.83.3l-.09.07-10.28 11.25-9.46-9.3 6.2-6.17a1.17 1.17 0 00-.84-2l-4.85.03.06-3.52 6.79.06a15.2 15.2 0 0013.7 4.33c.08.07.17.14.28.19l5.27 2.1.33 1.66.4 1.93-6.58-.93zm8.84.39l-.68-3.41 3.16-2.36.83 1.1 1.24 1.65-4.55 3.02zm8.22-6.2l-1.84 1.72-2.03-2.7 1.81-1.4a1.6 1.6 0 011.2-.31 1.57 1.57 0 01.86 2.7z" fill="#212121"/>
  <path d="M29.75 40.57l-4.68-4.67a1.17 1.17 0 00-1.65 0l-4.69 4.67a1.17 1.17 0 000 1.65l4.7 4.67a1.17 1.17 0 001.64 0l4.68-4.67a1.17 1.17 0 000-1.65zm-5.5 3.84L21.2 41.4l3.03-3.02 3.04 3.02-3.04 3.02zM37.55 11.1l-.57 2.26c.16.04 3.8.99 3.8 4.7h2.34c0-4.41-3.65-6.49-5.57-6.97zM43.12 20.4h-2.34v2.33h2.34v-2.34z" fill="#212121"/>
</svg>
