<svg width="59" height="47" fill="none" xmlns="http://www.w3.org/2000/svg">
  <path d="M4.49 39.28c.23.28.35.64.34 1a1.6 1.6 0 01-.53 1.28c-.45.34-1 .5-1.56.47H0v-6.4h2.68c.53-.04 1.06.11 1.49.42a1.46 1.46 0 01.52 1.2c.02.35-.1.7-.31.98-.21.25-.5.43-.82.5.37.07.7.26.93.55zm-3.22-.97h1.15c.26.02.52-.06.73-.21a.76.76 0 00.25-.63.79.79 0 00-.25-.62 1.1 1.1 0 00-.75-.22H1.27v1.68zm2 2.46a.8.8 0 00.26-.65.81.81 0 00-.27-.66c-.23-.17-.5-.25-.78-.23h-1.2v1.76h1.21c.28.02.55-.06.77-.22zM9.97 42.03l-1.49-2.5h-.56v2.5H6.63v-6.4h2.44a2.4 2.4 0 011.69.54 2.05 2.05 0 01.18 2.65c-.3.35-.71.58-1.16.65l1.59 2.56h-1.4zm-2.05-3.37h1.05c.73 0 1.1-.33 1.1-.97a.96.96 0 00-.28-.72c-.23-.2-.52-.29-.82-.26H7.9v1.95zM17 40.74h-2.57l-.45 1.3h-1.35l2.35-6.34h1.46l2.34 6.33h-1.35L17 40.74zm-.35-.97l-.94-2.7-.93 2.7h1.87zM25.78 42.03H24.5l-2.86-4.35v4.35h-1.27v-6.4h1.27L24.5 40v-4.38h1.28v6.4zM33.05 40.5c-.26.48-.67.88-1.15 1.13-.56.28-1.17.42-1.8.4h-2.26v-6.4h2.26c.63-.02 1.24.12 1.8.4.48.24.89.63 1.15 1.1a3.74 3.74 0 010 3.37zm-1.46-.16a2.35 2.35 0 000-3.05 2.21 2.21 0 00-1.6-.55h-.88v4.15H30c.58.04 1.15-.16 1.6-.55zM17.79 0s16.45 6.24 16.1 15.26v15.26s-16.44-6.24-16.1-15.26V0zM48.55 26.95c3.1-2.15 6.7-3.48 10.45-3.87V18.3a21.47 21.47 0 00-10.45 8.65z" fill="#AFB1B8"/>
  <path d="M46.68 28.39A22.38 22.38 0 0159 17.3V3.54s-23.43 8.88-22.93 21.73V47s1.04-.4 2.68-1.14c0-.7 0-1.4.08-2.1a22.6 22.6 0 017.85-15.37z" fill="#AFB1B8"/>
  <path d="M44.45 36.46c.13-1.5.4-3 .82-4.45a21.04 21.04 0 00-4.96 13.13 68 68 0 004.5-2.39 22.58 22.58 0 01-.36-6.29zM45.38 36.54c-.15 1.9-.05 3.82.3 5.7 6.4-3.85 13.59-9.79 13.31-16.97v-.63a20.97 20.97 0 00-12.18 5.72 21.5 21.5 0 00-1.43 6.18z" fill="#AFB1B8"/>
</svg>
