<svg width="80" height="43" fill="none" xmlns="http://www.w3.org/2000/svg">
  <path d="M12.4 12.83a4.04 4.04 0 00-4.1 4c0 2.2 1.84 3.99 4.1 3.99s4.1-1.8 4.1-4-1.84-3.99-4.1-3.99zM42.64 11.55c-.01-3.06-1.26-6-3.48-8.16a12.04 12.04 0 00-16.75 0 11.43 11.43 0 00-3.49 8.16v16.89s23.71-2.57 23.72-16.88zM0 33.98c0 2.13.88 4.17 2.42 5.68a8.38 8.38 0 0011.66 0 7.96 7.96 0 002.42-5.68V22.24S0 24.03 0 33.98zm8.25 2.1a2.2 2.2 0 01-1.2-.35 2.06 2.06 0 01-.33-3.24 2.18 2.18 0 012.36-.45 2.07 2.07 0 01.7 3.44 2.16 2.16 0 01-1.53.62v-.01zM25.09 34.78H23.4v1.74h-.88v-4.26h2.78v.71h-1.9v1.1h1.69v.71zm4.22-.3c0 .43-.07.8-.22 1.11a1.67 1.67 0 01-1.59 1 1.7 1.7 0 01-1.6-.98 2.51 2.51 0 01-.22-1.1v-.2c0-.43.08-.8.23-1.12a1.7 1.7 0 011.59-.99c.35 0 .67.09.94.26.28.17.5.41.65.73.15.32.22.69.22 1.1v.2zm-.89-.19c0-.44-.08-.78-.24-1.01a.78.78 0 00-.68-.35c-.3 0-.53.11-.69.34-.16.23-.24.57-.24 1.01v.2c0 .44.08.78.24 1.02.16.24.4.36.7.36.29 0 .51-.11.67-.34.16-.24.24-.57.24-1.02v-.2zm3.74 1.12c0-.17-.05-.3-.17-.39a2.25 2.25 0 00-.63-.28c-.3-.1-.55-.2-.73-.29-.48-.26-.72-.61-.72-1.06 0-.23.06-.43.19-.61s.32-.33.56-.43c.24-.1.52-.15.82-.15.3 0 .57.06.81.17a1.22 1.22 0 01.75 1.15h-.87c0-.2-.06-.35-.19-.46a.75.75 0 00-.52-.16.8.8 0 00-.5.14.43.43 0 00-.18.36c0 .13.07.25.21.34.14.1.35.19.62.27.5.15.86.33 1.1.56.22.22.34.5.34.83 0 .37-.14.66-.42.87-.28.2-.66.31-1.13.31a2.2 2.2 0 01-.9-.18 1.27 1.27 0 01-.83-1.22h.89c0 .47.28.7.84.7.2 0 .37-.03.49-.12.12-.08.17-.2.17-.35zm4.7-2.44h-1.31v3.55h-.88v-3.55h-1.29v-.71h3.47v.71zm3.06 1.7h-1.68v1.15h1.98v.7h-2.86v-4.26h2.85v.71h-1.97V34h1.68v.69zm2.4.3h-.7v1.55h-.89v-4.26h1.59c.5 0 .9.11 1.16.34.28.22.41.54.41.95 0 .29-.06.53-.19.73-.12.2-.31.34-.57.46l.93 1.74v.04h-.95l-.8-1.56zm-.7-.72h.7c.22 0 .4-.05.51-.17a.6.6 0 00.19-.46c0-.2-.06-.36-.18-.48-.11-.11-.29-.17-.52-.17h-.7v1.28zm5.32.77v1.5h-.88v-4.26h1.66c.32 0 .6.06.85.17.24.12.43.29.56.5.13.22.2.47.2.74 0 .42-.15.75-.43 1-.29.23-.68.35-1.2.35h-.76zm0-.71h.78c.24 0 .41-.06.53-.16.13-.11.19-.27.19-.47a.7.7 0 00-.19-.51.69.69 0 00-.5-.2h-.81v1.34zm5.56.37H50.8v1.14h1.98v.7h-2.86v-4.26h2.86v.71H50.8V34h1.69v.69zm4.08-1.7h-1.3v3.54h-.89v-3.55H53.1v-.71h3.48v.71zm3.07 1.7h-1.69v1.14h1.98v.7h-2.86v-4.26h2.85v.71h-1.97V34h1.69v.69zm2.39.28h-.7v1.56h-.88v-4.26h1.58c.5 0 .9.11 1.17.34.27.22.4.54.4.95 0 .29-.06.53-.18.73-.13.2-.32.34-.57.46l.92 1.74v.04h-.94l-.8-1.56zm-.7-.7h.7c.22 0 .4-.06.52-.18a.6.6 0 00.18-.46c0-.2-.06-.36-.17-.48-.12-.11-.3-.17-.53-.17h-.7v1.28zm5.16 1.15c0-.17-.06-.3-.18-.39a2.25 2.25 0 00-.63-.28c-.3-.1-.54-.2-.72-.29-.49-.26-.73-.61-.73-1.06 0-.23.07-.43.2-.61s.31-.33.55-.43c.25-.1.52-.15.82-.15.3 0 .58.06.82.17a1.22 1.22 0 01.75 1.15h-.88c0-.2-.06-.35-.18-.46a.75.75 0 00-.52-.16.8.8 0 00-.5.14.43.43 0 00-.18.36c0 .13.07.25.2.34.15.1.36.19.63.27.5.15.86.33 1.09.56.23.22.34.5.34.83 0 .37-.14.66-.42.87-.28.2-.65.31-1.12.31a2.2 2.2 0 01-.9-.18 1.27 1.27 0 01-.83-1.22h.88c0 .47.28.7.85.7.2 0 .37-.03.48-.12.12-.08.18-.2.18-.35z" fill="#AFB1B8"/>
</svg>
